<?xml version="1.0" encoding="utf-8" standalone="no"?>
<!DOCTYPE svg PUBLIC "-//W3C//DTD SVG 1.1//EN"
  "http://www.w3.org/Graphics/SVG/1.1/DTD/svg11.dtd">
<svg xmlns:xlink="http://www.w3.org/1999/xlink" width="661.603125pt" height="331.346219pt" viewBox="0 0 661.603125 331.346219" xmlns="http://www.w3.org/2000/svg" version="1.1">
 <metadata>
  <rdf:RDF xmlns:dc="http://purl.org/dc/elements/1.1/" xmlns:cc="http://creativecommons.org/ns#" xmlns:rdf="http://www.w3.org/1999/02/22-rdf-syntax-ns#">
   <cc:Work>
    <dc:type rdf:resource="http://purl.org/dc/dcmitype/StillImage"/>
    <dc:date>2026-10-09T01:00:52.983590</dc:date>
    <dc:format>image/svg+xml</dc:format>
    <dc:creator>
     <cc:Agent>
      <dc:title>Matplotlib v3.10.9, https://matplotlib.org/</dc:title>
     </cc:Agent>
    </dc:creator>
   </cc:Work>
  </rdf:RDF>
 </metadata>
 <defs>
  <style type="text/css">*{stroke-linejoin: round; stroke-linecap: butt}</style>
 </defs>
 <g id="figure_1">
  <g id="patch_1">
   <path d="M 0 331.346219 
L 661.603125 331.346219 
L 661.603125 0 
L 0 0 
z
" style="fill: #ffffff"/>
  </g>
  <g id="axes_1">
   <g id="patch_2">
    <path d="M 40.603125 307.189969 
L 654.403125 307.189969 
L 654.403125 41.077969 
L 40.603125 41.077969 
z
" style="fill: #ffffff"/>
   </g>
   <g id="matplotlib.axis_1">
    <g id="xtick_1">
     <g id="line2d_1">
      <path d="M 115.003125 307.189969 
L 115.003125 41.077969 
" clip-path="url(#p6cf7e8172d)" style="fill: none; stroke: #b0b0b0; stroke-opacity: 0.3; stroke-width: 0.8; stroke-linecap: square"/>
     </g>
     <g id="line2d_2">
      <defs>
       <path id="mb2cf71fd12" d="M 0 0 
L 0 3.5 
" style="stroke: #000000; stroke-width: 0.8"/>
      </defs>
      <g>
       <use xlink:href="#mb2cf71fd12" x="115.003125" y="307.189969" style="stroke: #000000; stroke-width: 0.8"/>
      </g>
     </g>
     <g id="text_1">
      <text style="font-size: 10px; font-family: 'DejaVu Sans'; text-anchor: middle" x="115.003125" y="321.788406" transform="rotate(-0 115.003125 321.788406)">test_language (27)</text>
     </g>
    </g>
    <g id="xtick_2">
     <g id="line2d_3">
      <path d="M 231.253125 307.189969 
L 231.253125 41.077969 
" clip-path="url(#p6cf7e8172d)" style="fill: none; stroke: #b0b0b0; stroke-opacity: 0.3; stroke-width: 0.8; stroke-linecap: square"/>
     </g>
     <g id="line2d_4">
      <g>
       <use xlink:href="#mb2cf71fd12" x="231.253125" y="307.189969" style="stroke: #000000; stroke-width: 0.8"/>
      </g>
     </g>
     <g id="text_2">
      <text style="font-size: 10px; font-family: 'DejaVu Sans'; text-anchor: middle" x="231.253125" y="321.788406" transform="rotate(-0 231.253125 321.788406)">test_closure (7)</text>
     </g>
    </g>
    <g id="xtick_3">
     <g id="line2d_5">
      <path d="M 347.503125 307.189969 
L 347.503125 41.077969 
" clip-path="url(#p6cf7e8172d)" style="fill: none; stroke: #b0b0b0; stroke-opacity: 0.3; stroke-width: 0.8; stroke-linecap: square"/>
     </g>
     <g id="line2d_6">
      <g>
       <use xlink:href="#mb2cf71fd12" x="347.503125" y="307.189969" style="stroke: #000000; stroke-width: 0.8"/>
      </g>
     </g>
     <g id="text_3">
      <text style="font-size: 10px; font-family: 'DejaVu Sans'; text-anchor: middle" x="347.503125" y="321.788406" transform="rotate(-0 347.503125 321.788406)">test_loop (18)</text>
     </g>
    </g>
    <g id="xtick_4">
     <g id="line2d_7">
      <path d="M 463.753125 307.189969 
L 463.753125 41.077969 
" clip-path="url(#p6cf7e8172d)" style="fill: none; stroke: #b0b0b0; stroke-opacity: 0.3; stroke-width: 0.8; stroke-linecap: square"/>
     </g>
     <g id="line2d_8">
      <g>
       <use xlink:href="#mb2cf71fd12" x="463.753125" y="307.189969" style="stroke: #000000; stroke-width: 0.8"/>
      </g>
     </g>
     <g id="text_4">
      <text style="font-size: 10px; font-family: 'DejaVu Sans'; text-anchor: middle" x="463.753125" y="321.788406" transform="rotate(-0 463.753125 321.788406)">test_bigint (4)</text>
     </g>
    </g>
    <g id="xtick_5">
     <g id="line2d_9">
      <path d="M 580.003125 307.189969 
L 580.003125 41.077969 
" clip-path="url(#p6cf7e8172d)" style="fill: none; stroke: #b0b0b0; stroke-opacity: 0.3; stroke-width: 0.8; stroke-linecap: square"/>
     </g>
     <g id="line2d_10">
      <g>
       <use xlink:href="#mb2cf71fd12" x="580.003125" y="307.189969" style="stroke: #000000; stroke-width: 0.8"/>
      </g>
     </g>
     <g id="text_5">
      <text style="font-size: 10px; font-family: 'DejaVu Sans'; text-anchor: middle" x="580.003125" y="321.788406" transform="rotate(-0 580.003125 321.788406)">test_builtin (21)</text>
     </g>
    </g>
   </g>
   <g id="matplotlib.axis_2">
    <g id="ytick_1">
     <g id="line2d_11">
      <path d="M 40.603125 307.189969 
L 654.403125 307.189969 
" clip-path="url(#p6cf7e8172d)" style="fill: none; stroke: #b0b0b0; stroke-opacity: 0.3; stroke-width: 0.8; stroke-linecap: square"/>
     </g>
     <g id="line2d_12">
      <defs>
       <path id="mbdfc7ebe52" d="M 0 0 
L -3.5 0 
" style="stroke: #000000; stroke-width: 0.8"/>
      </defs>
      <g>
       <use xlink:href="#mbdfc7ebe52" x="40.603125" y="307.189969" style="stroke: #000000; stroke-width: 0.8"/>
      </g>
     </g>
     <g id="text_6">
      <text style="font-size: 10px; font-family: 'DejaVu Sans'; text-anchor: end" x="33.603125" y="310.989187" transform="rotate(-0 33.603125 310.989187)">0</text>
     </g>
    </g>
    <g id="ytick_2">
     <g id="line2d_13">
      <path d="M 40.603125 270.686265 
L 654.403125 270.686265 
" clip-path="url(#p6cf7e8172d)" style="fill: none; stroke: #b0b0b0; stroke-opacity: 0.3; stroke-width: 0.8; stroke-linecap: square"/>
     </g>
     <g id="line2d_14">
      <g>
       <use xlink:href="#mbdfc7ebe52" x="40.603125" y="270.686265" style="stroke: #000000; stroke-width: 0.8"/>
      </g>
     </g>
     <g id="text_7">
      <text style="font-size: 10px; font-family: 'DejaVu Sans'; text-anchor: end" x="33.603125" y="274.485484" transform="rotate(-0 33.603125 274.485484)">5</text>
     </g>
    </g>
    <g id="ytick_3">
     <g id="line2d_15">
      <path d="M 40.603125 234.182561 
L 654.403125 234.182561 
" clip-path="url(#p6cf7e8172d)" style="fill: none; stroke: #b0b0b0; stroke-opacity: 0.3; stroke-width: 0.8; stroke-linecap: square"/>
     </g>
     <g id="line2d_16">
      <g>
       <use xlink:href="#mbdfc7ebe52" x="40.603125" y="234.182561" style="stroke: #000000; stroke-width: 0.8"/>
      </g>
     </g>
     <g id="text_8">
      <text style="font-size: 10px; font-family: 'DejaVu Sans'; text-anchor: end" x="33.603125" y="237.98178" transform="rotate(-0 33.603125 237.98178)">10</text>
     </g>
    </g>
    <g id="ytick_4">
     <g id="line2d_17">
      <path d="M 40.603125 197.678858 
L 654.403125 197.678858 
" clip-path="url(#p6cf7e8172d)" style="fill: none; stroke: #b0b0b0; stroke-opacity: 0.3; stroke-width: 0.8; stroke-linecap: square"/>
     </g>
     <g id="line2d_18">
      <g>
       <use xlink:href="#mbdfc7ebe52" x="40.603125" y="197.678858" style="stroke: #000000; stroke-width: 0.8"/>
      </g>
     </g>
     <g id="text_9">
      <text style="font-size: 10px; font-family: 'DejaVu Sans'; text-anchor: end" x="33.603125" y="201.478076" transform="rotate(-0 33.603125 201.478076)">15</text>
     </g>
    </g>
    <g id="ytick_5">
     <g id="line2d_19">
      <path d="M 40.603125 161.175154 
L 654.403125 161.175154 
" clip-path="url(#p6cf7e8172d)" style="fill: none; stroke: #b0b0b0; stroke-opacity: 0.3; stroke-width: 0.8; stroke-linecap: square"/>
     </g>
     <g id="line2d_20">
      <g>
       <use xlink:href="#mbdfc7ebe52" x="40.603125" y="161.175154" style="stroke: #000000; stroke-width: 0.8"/>
      </g>
     </g>
     <g id="text_10">
      <text style="font-size: 10px; font-family: 'DejaVu Sans'; text-anchor: end" x="33.603125" y="164.974373" transform="rotate(-0 33.603125 164.974373)">20</text>
     </g>
    </g>
    <g id="ytick_6">
     <g id="line2d_21">
      <path d="M 40.603125 124.67145 
L 654.403125 124.67145 
" clip-path="url(#p6cf7e8172d)" style="fill: none; stroke: #b0b0b0; stroke-opacity: 0.3; stroke-width: 0.8; stroke-linecap: square"/>
     </g>
     <g id="line2d_22">
      <g>
       <use xlink:href="#mbdfc7ebe52" x="40.603125" y="124.67145" style="stroke: #000000; stroke-width: 0.8"/>
      </g>
     </g>
     <g id="text_11">
      <text style="font-size: 10px; font-family: 'DejaVu Sans'; text-anchor: end" x="33.603125" y="128.470669" transform="rotate(-0 33.603125 128.470669)">25</text>
     </g>
    </g>
    <g id="ytick_7">
     <g id="line2d_23">
      <path d="M 40.603125 88.167747 
L 654.403125 88.167747 
" clip-path="url(#p6cf7e8172d)" style="fill: none; stroke: #b0b0b0; stroke-opacity: 0.3; stroke-width: 0.8; stroke-linecap: square"/>
     </g>
     <g id="line2d_24">
      <g>
       <use xlink:href="#mbdfc7ebe52" x="40.603125" y="88.167747" style="stroke: #000000; stroke-width: 0.8"/>
      </g>
     </g>
     <g id="text_12">
      <text style="font-size: 10px; font-family: 'DejaVu Sans'; text-anchor: end" x="33.603125" y="91.966965" transform="rotate(-0 33.603125 91.966965)">30</text>
     </g>
    </g>
    <g id="ytick_8">
     <g id="line2d_25">
      <path d="M 40.603125 51.664043 
L 654.403125 51.664043 
" clip-path="url(#p6cf7e8172d)" style="fill: none; stroke: #b0b0b0; stroke-opacity: 0.3; stroke-width: 0.8; stroke-linecap: square"/>
     </g>
     <g id="line2d_26">
      <g>
       <use xlink:href="#mbdfc7ebe52" x="40.603125" y="51.664043" style="stroke: #000000; stroke-width: 0.8"/>
      </g>
     </g>
     <g id="text_13">
      <text style="font-size: 10px; font-family: 'DejaVu Sans'; text-anchor: end" x="33.603125" y="55.463262" transform="rotate(-0 33.603125 55.463262)">35</text>
     </g>
    </g>
    <g id="text_14">
     <text style="font-size: 10px; font-family: 'DejaVu Sans'; text-anchor: middle" x="14.798438" y="174.133969" transform="rotate(-90 14.798438 174.133969)">functions passed (higher is better)</text>
    </g>
   </g>
   <g id="patch_3">
    <path d="M 68.503125 307.189969 
L 87.103125 307.189969 
L 87.103125 117.370709 
L 68.503125 117.370709 
z
" clip-path="url(#p6cf7e8172d)" style="fill: #1d4ed8"/>
   </g>
   <g id="patch_4">
    <path d="M 184.753125 307.189969 
L 203.353125 307.189969 
L 203.353125 256.084784 
L 184.753125 256.084784 
z
" clip-path="url(#p6cf7e8172d)" style="fill: #1d4ed8"/>
   </g>
   <g id="patch_5">
    <path d="M 301.003125 307.189969 
L 319.603125 307.189969 
L 319.603125 183.077376 
L 301.003125 183.077376 
z
" clip-path="url(#p6cf7e8172d)" style="fill: #1d4ed8"/>
   </g>
   <g id="patch_6">
    <path d="M 417.253125 307.189969 
L 435.853125 307.189969 
L 435.853125 277.987006 
L 417.253125 277.987006 
z
" clip-path="url(#p6cf7e8172d)" style="fill: #1d4ed8"/>
   </g>
   <g id="patch_7">
    <path d="M 533.503125 307.189969 
L 552.103125 307.189969 
L 552.103125 168.475895 
L 533.503125 168.475895 
z
" clip-path="url(#p6cf7e8172d)" style="fill: #1d4ed8"/>
   </g>
   <g id="patch_8">
    <path d="M 87.103125 307.189969 
L 105.703125 307.189969 
L 105.703125 110.069969 
L 87.103125 110.069969 
z
" clip-path="url(#p6cf7e8172d)" style="fill: #047857"/>
   </g>
   <g id="patch_9">
    <path d="M 203.353125 307.189969 
L 221.953125 307.189969 
L 221.953125 256.084784 
L 203.353125 256.084784 
z
" clip-path="url(#p6cf7e8172d)" style="fill: #047857"/>
   </g>
   <g id="patch_10">
    <path d="M 319.603125 307.189969 
L 338.203125 307.189969 
L 338.203125 175.776635 
L 319.603125 175.776635 
z
" clip-path="url(#p6cf7e8172d)" style="fill: #047857"/>
   </g>
   <g id="patch_11">
    <path d="M 435.853125 307.189969 
L 454.453125 307.189969 
L 454.453125 277.987006 
L 435.853125 277.987006 
z
" clip-path="url(#p6cf7e8172d)" style="fill: #047857"/>
   </g>
   <g id="patch_12">
    <path d="M 552.103125 307.189969 
L 570.703125 307.189969 
L 570.703125 153.874413 
L 552.103125 153.874413 
z
" clip-path="url(#p6cf7e8172d)" style="fill: #047857"/>
   </g>
   <g id="patch_13">
    <path d="M 105.703125 307.189969 
L 124.303125 307.189969 
L 124.303125 117.370709 
L 105.703125 117.370709 
z
" clip-path="url(#p6cf7e8172d)" style="fill: #93c5fd"/>
   </g>
   <g id="patch_14">
    <path d="M 221.953125 307.189969 
L 240.553125 307.189969 
L 240.553125 256.084784 
L 221.953125 256.084784 
z
" clip-path="url(#p6cf7e8172d)" style="fill: #93c5fd"/>
   </g>
   <g id="patch_15">
    <path d="M 338.203125 307.189969 
L 356.803125 307.189969 
L 356.803125 183.077376 
L 338.203125 183.077376 
z
" clip-path="url(#p6cf7e8172d)" style="fill: #93c5fd"/>
   </g>
   <g id="patch_16">
    <path d="M 454.453125 307.189969 
L 473.053125 307.189969 
L 473.053125 277.987006 
L 454.453125 277.987006 
z
" clip-path="url(#p6cf7e8172d)" style="fill: #93c5fd"/>
   </g>
   <g id="patch_17">
    <path d="M 570.703125 307.189969 
L 589.303125 307.189969 
L 589.303125 168.475895 
L 570.703125 168.475895 
z
" clip-path="url(#p6cf7e8172d)" style="fill: #93c5fd"/>
   </g>
   <g id="patch_18">
    <path d="M 124.303125 307.189969 
L 142.903125 307.189969 
L 142.903125 110.069969 
L 124.303125 110.069969 
z
" clip-path="url(#p6cf7e8172d)" style="fill: #6ee7b7"/>
   </g>
   <g id="patch_19">
    <path d="M 240.553125 307.189969 
L 259.153125 307.189969 
L 259.153125 256.084784 
L 240.553125 256.084784 
z
" clip-path="url(#p6cf7e8172d)" style="fill: #6ee7b7"/>
   </g>
   <g id="patch_20">
    <path d="M 356.803125 307.189969 
L 375.403125 307.189969 
L 375.403125 175.776635 
L 356.803125 175.776635 
z
" clip-path="url(#p6cf7e8172d)" style="fill: #6ee7b7"/>
   </g>
   <g id="patch_21">
    <path d="M 473.053125 307.189969 
L 491.653125 307.189969 
L 491.653125 277.987006 
L 473.053125 277.987006 
z
" clip-path="url(#p6cf7e8172d)" style="fill: #6ee7b7"/>
   </g>
   <g id="patch_22">
    <path d="M 589.303125 307.189969 
L 607.903125 307.189969 
L 607.903125 153.874413 
L 589.303125 153.874413 
z
" clip-path="url(#p6cf7e8172d)" style="fill: #6ee7b7"/>
   </g>
   <g id="patch_23">
    <path d="M 142.903125 307.189969 
L 161.503125 307.189969 
L 161.503125 139.272932 
L 142.903125 139.272932 
z
" clip-path="url(#p6cf7e8172d)" style="fill: #94a3b8"/>
   </g>
   <g id="patch_24">
    <path d="M 259.153125 307.189969 
L 277.753125 307.189969 
L 277.753125 263.385524 
L 259.153125 263.385524 
z
" clip-path="url(#p6cf7e8172d)" style="fill: #94a3b8"/>
   </g>
   <g id="patch_25">
    <path d="M 375.403125 307.189969 
L 394.003125 307.189969 
L 394.003125 183.077376 
L 375.403125 183.077376 
z
" clip-path="url(#p6cf7e8172d)" style="fill: #94a3b8"/>
   </g>
   <g id="patch_26">
    <path d="M 491.653125 307.189969 
L 510.253125 307.189969 
L 510.253125 285.287747 
L 491.653125 285.287747 
z
" clip-path="url(#p6cf7e8172d)" style="fill: #94a3b8"/>
   </g>
   <g id="patch_27">
    <path d="M 607.903125 307.189969 
L 626.503125 307.189969 
L 626.503125 241.483302 
L 607.903125 241.483302 
z
" clip-path="url(#p6cf7e8172d)" style="fill: #94a3b8"/>
   </g>
   <g id="patch_28">
    <path d="M 40.603125 307.189969 
L 40.603125 41.077969 
" style="fill: none; stroke: #000000; stroke-width: 0.8; stroke-linejoin: miter; stroke-linecap: square"/>
   </g>
   <g id="patch_29">
    <path d="M 40.603125 307.189969 
L 654.403125 307.189969 
" style="fill: none; stroke: #000000; stroke-width: 0.8; stroke-linejoin: miter; stroke-linecap: square"/>
   </g>
   <g id="text_15">
    <text style="font-size: 7.5px; font-family: 'DejaVu Sans'; text-anchor: middle" x="77.803125" y="113.810944" transform="rotate(-0 77.803125 113.810944)">26</text>
   </g>
   <g id="text_16">
    <text style="font-size: 7.5px; font-family: 'DejaVu Sans'; text-anchor: middle" x="194.053125" y="252.525018" transform="rotate(-0 194.053125 252.525018)">7</text>
   </g>
   <g id="text_17">
    <text style="font-size: 7.5px; font-family: 'DejaVu Sans'; text-anchor: middle" x="310.303125" y="179.517611" transform="rotate(-0 310.303125 179.517611)">17</text>
   </g>
   <g id="text_18">
    <text style="font-size: 7.5px; font-family: 'DejaVu Sans'; text-anchor: middle" x="426.553125" y="274.42724" transform="rotate(-0 426.553125 274.42724)">4</text>
   </g>
   <g id="text_19">
    <text style="font-size: 7.5px; font-family: 'DejaVu Sans'; text-anchor: middle" x="542.803125" y="164.916129" transform="rotate(-0 542.803125 164.916129)">19</text>
   </g>
   <g id="text_20">
    <text style="font-size: 7.5px; font-family: 'DejaVu Sans'; text-anchor: middle" x="96.403125" y="106.510203" transform="rotate(-0 96.403125 106.510203)">27</text>
   </g>
   <g id="text_21">
    <text style="font-size: 7.5px; font-family: 'DejaVu Sans'; text-anchor: middle" x="212.653125" y="252.525018" transform="rotate(-0 212.653125 252.525018)">7</text>
   </g>
   <g id="text_22">
    <text style="font-size: 7.5px; font-family: 'DejaVu Sans'; text-anchor: middle" x="328.903125" y="172.21687" transform="rotate(-0 328.903125 172.21687)">18</text>
   </g>
   <g id="text_23">
    <text style="font-size: 7.5px; font-family: 'DejaVu Sans'; text-anchor: middle" x="445.153125" y="274.42724" transform="rotate(-0 445.153125 274.42724)">4</text>
   </g>
   <g id="text_24">
    <text style="font-size: 7.5px; font-family: 'DejaVu Sans'; text-anchor: middle" x="561.403125" y="150.314648" transform="rotate(-0 561.403125 150.314648)">21</text>
   </g>
   <g id="text_25">
    <text style="font-size: 7.5px; font-family: 'DejaVu Sans'; text-anchor: middle" x="115.003125" y="113.810944" transform="rotate(-0 115.003125 113.810944)">26</text>
   </g>
   <g id="text_26">
    <text style="font-size: 7.5px; font-family: 'DejaVu Sans'; text-anchor: middle" x="231.253125" y="252.525018" transform="rotate(-0 231.253125 252.525018)">7</text>
   </g>
   <g id="text_27">
    <text style="font-size: 7.5px; font-family: 'DejaVu Sans'; text-anchor: middle" x="347.503125" y="179.517611" transform="rotate(-0 347.503125 179.517611)">17</text>
   </g>
   <g id="text_28">
    <text style="font-size: 7.5px; font-family: 'DejaVu Sans'; text-anchor: middle" x="463.753125" y="274.42724" transform="rotate(-0 463.753125 274.42724)">4</text>
   </g>
   <g id="text_29">
    <text style="font-size: 7.5px; font-family: 'DejaVu Sans'; text-anchor: middle" x="580.003125" y="164.916129" transform="rotate(-0 580.003125 164.916129)">19</text>
   </g>
   <g id="text_30">
    <text style="font-size: 7.5px; font-family: 'DejaVu Sans'; text-anchor: middle" x="133.603125" y="106.510203" transform="rotate(-0 133.603125 106.510203)">27</text>
   </g>
   <g id="text_31">
    <text style="font-size: 7.5px; font-family: 'DejaVu Sans'; text-anchor: middle" x="249.853125" y="252.525018" transform="rotate(-0 249.853125 252.525018)">7</text>
   </g>
   <g id="text_32">
    <text style="font-size: 7.5px; font-family: 'DejaVu Sans'; text-anchor: middle" x="366.103125" y="172.21687" transform="rotate(-0 366.103125 172.21687)">18</text>
   </g>
   <g id="text_33">
    <text style="font-size: 7.5px; font-family: 'DejaVu Sans'; text-anchor: middle" x="482.353125" y="274.42724" transform="rotate(-0 482.353125 274.42724)">4</text>
   </g>
   <g id="text_34">
    <text style="font-size: 7.5px; font-family: 'DejaVu Sans'; text-anchor: middle" x="598.603125" y="150.314648" transform="rotate(-0 598.603125 150.314648)">21</text>
   </g>
   <g id="text_35">
    <text style="font-size: 7.5px; font-family: 'DejaVu Sans'; text-anchor: middle" x="152.203125" y="135.713166" transform="rotate(-0 152.203125 135.713166)">23</text>
   </g>
   <g id="text_36">
    <text style="font-size: 7.5px; font-family: 'DejaVu Sans'; text-anchor: middle" x="268.453125" y="259.825759" transform="rotate(-0 268.453125 259.825759)">6</text>
   </g>
   <g id="text_37">
    <text style="font-size: 7.5px; font-family: 'DejaVu Sans'; text-anchor: middle" x="384.703125" y="179.517611" transform="rotate(-0 384.703125 179.517611)">17</text>
   </g>
   <g id="text_38">
    <text style="font-size: 7.5px; font-family: 'DejaVu Sans'; text-anchor: middle" x="500.953125" y="281.727981" transform="rotate(-0 500.953125 281.727981)">3</text>
   </g>
   <g id="text_39">
    <text style="font-size: 7.5px; font-family: 'DejaVu Sans'; text-anchor: middle" x="617.203125" y="237.923536" transform="rotate(-0 617.203125 237.923536)">9</text>
   </g>
   <g id="text_40">
    <text style="font-size: 9px; font-family: 'DejaVu Sans'; text-anchor: start; fill: #475569" x="40.603125" y="30.955937" transform="rotate(-0 40.603125 30.955937)">Bellard 2026-06-04 tests/test_*.js, one process per function. Total functions in parentheses.</text>
   </g>
   <g id="text_41">
    <text style="font-weight: 700; font-size: 13px; font-family: 'DejaVu Sans'; text-anchor: start" x="40.603125" y="17.077969" transform="rotate(-0 40.603125 17.077969)">QuickJS official tests: functions passed per file</text>
   </g>
   <g id="legend_1">
    <g id="patch_30">
     <path d="M 262.915703 60.354375 
L 648.453125 60.354375 
Q 650.153125 60.354375 650.153125 58.654375 
L 650.153125 47.027969 
Q 650.153125 45.327969 648.453125 45.327969 
L 262.915703 45.327969 
Q 261.215703 45.327969 261.215703 47.027969 
L 261.215703 58.654375 
Q 261.215703 60.354375 262.915703 60.354375 
z
" style="fill: #ffffff"/>
    </g>
    <g id="patch_31">
     <path d="M 264.615703 55.186641 
L 281.615703 55.186641 
L 281.615703 49.236641 
L 264.615703 49.236641 
z
" style="fill: #1d4ed8"/>
    </g>
    <g id="text_42">
     <text style="font-size: 8.5px; font-family: 'DejaVu Sans'; text-anchor: start" x="288.415703" y="55.186641" transform="rotate(-0 288.415703 55.186641)">goc-ng</text>
    </g>
    <g id="patch_32">
     <path d="M 334.536172 55.186641 
L 351.536172 55.186641 
L 351.536172 49.236641 
L 334.536172 49.236641 
z
" style="fill: #047857"/>
    </g>
    <g id="text_43">
     <text style="font-size: 8.5px; font-family: 'DejaVu Sans'; text-anchor: start" x="358.336172" y="55.186641" transform="rotate(-0 358.336172 55.186641)">goc-bellard</text>
    </g>
    <g id="patch_33">
     <path d="M 422.973359 55.186641 
L 439.973359 55.186641 
L 439.973359 49.236641 
L 422.973359 49.236641 
z
" style="fill: #93c5fd"/>
    </g>
    <g id="text_44">
     <text style="font-size: 8.5px; font-family: 'DejaVu Sans'; text-anchor: start" x="446.773359" y="55.186641" transform="rotate(-0 446.773359 55.186641)">native ng</text>
    </g>
    <g id="patch_34">
     <path d="M 503.808359 55.186641 
L 520.808359 55.186641 
L 520.808359 49.236641 
L 503.808359 49.236641 
z
" style="fill: #6ee7b7"/>
    </g>
    <g id="text_45">
     <text style="font-size: 8.5px; font-family: 'DejaVu Sans'; text-anchor: start" x="527.608359" y="55.186641" transform="rotate(-0 527.608359 55.186641)">native Bellard</text>
    </g>
    <g id="patch_35">
     <path d="M 603.595703 55.186641 
L 620.595703 55.186641 
L 620.595703 49.236641 
L 603.595703 49.236641 
z
" style="fill: #94a3b8"/>
    </g>
    <g id="text_46">
     <text style="font-size: 8.5px; font-family: 'DejaVu Sans'; text-anchor: start" x="627.395703" y="55.186641" transform="rotate(-0 627.395703 55.186641)">Goja</text>
    </g>
   </g>
  </g>
 </g>
 <defs>
  <clipPath id="p6cf7e8172d">
   <rect x="40.603125" y="41.077969" width="613.8" height="266.112"/>
  </clipPath>
 </defs>
</svg>
