<svg xmlns="http://www.w3.org/2000/svg" width="761" height="344" viewBox="0 0 761 344" font-family="Noto Sans CJK SC, Noto Sans CJK TC, sans-serif">
<rect width="100%" height="100%" fill="#ffffff"/>
<text x="16" y="26" font-size="16" font-weight="650" fill="#0f172a">V8-v7</text>
<text x="16" y="46" font-size="12" fill="#64748b">分数越高越快。goc 是两轮平均。Goja / native ng / Bellard 是同一套参考跑分。</text>
<rect x="16" y="50" width="10" height="10" rx="2" fill="#2563eb"/>
<text x="30" y="59" font-size="11" fill="#334155">goc</text>
<rect x="63" y="50" width="10" height="10" rx="2" fill="#059669"/>
<text x="77" y="59" font-size="11" fill="#334155">native ng</text>
<rect x="148" y="50" width="10" height="10" rx="2" fill="#d97706"/>
<text x="162" y="59" font-size="11" fill="#334155">Bellard</text>
<rect x="220" y="50" width="10" height="10" rx="2" fill="#7c3aed"/>
<text x="234" y="59" font-size="11" fill="#334155">Goja</text>
<rect x="101" y="68" width="640" height="26" fill="#f8fafc"/>
<text x="93" y="85.0" text-anchor="end" font-size="12" fill="#1e293b">Richards</text>
<rect x="101" y="72" width="102.3" height="3" rx="1.5" fill="#2563eb"/>
<rect x="101" y="76" width="111.6" height="3" rx="1.5" fill="#059669"/>
<rect x="101" y="80" width="142.9" height="3" rx="1.5" fill="#d97706"/>
<rect x="101" y="84" width="40.8" height="3" rx="1.5" fill="#7c3aed"/>
<text x="93" y="111.0" text-anchor="end" font-size="12" fill="#1e293b">DeltaBlue</text>
<rect x="101" y="98" width="103.4" height="3" rx="1.5" fill="#2563eb"/>
<rect x="101" y="102" width="115.8" height="3" rx="1.5" fill="#059669"/>
<rect x="101" y="106" width="135.1" height="3" rx="1.5" fill="#d97706"/>
<rect x="101" y="110" width="48.9" height="3" rx="1.5" fill="#7c3aed"/>
<rect x="101" y="120" width="640" height="26" fill="#f8fafc"/>
<text x="93" y="137.0" text-anchor="end" font-size="12" fill="#1e293b">Crypto</text>
<rect x="101" y="124" width="98.2" height="3" rx="1.5" fill="#2563eb"/>
<rect x="101" y="128" width="121.4" height="3" rx="1.5" fill="#059669"/>
<rect x="101" y="132" width="155.6" height="3" rx="1.5" fill="#d97706"/>
<rect x="101" y="136" width="20.3" height="3" rx="1.5" fill="#7c3aed"/>
<text x="93" y="163.0" text-anchor="end" font-size="12" fill="#1e293b">RayTrace</text>
<rect x="101" y="150" width="216.9" height="3" rx="1.5" fill="#2563eb"/>
<rect x="101" y="154" width="233.9" height="3" rx="1.5" fill="#059669"/>
<rect x="101" y="158" width="314.7" height="3" rx="1.5" fill="#d97706"/>
<rect x="101" y="162" width="42.5" height="3" rx="1.5" fill="#7c3aed"/>
<rect x="101" y="172" width="640" height="26" fill="#f8fafc"/>
<text x="93" y="189.0" text-anchor="end" font-size="12" fill="#1e293b">EarleyBoyer</text>
<rect x="101" y="176" width="276.3" height="3" rx="1.5" fill="#2563eb"/>
<rect x="101" y="180" width="320.8" height="3" rx="1.5" fill="#059669"/>
<rect x="101" y="184" width="382.6" height="3" rx="1.5" fill="#d97706"/>
<rect x="101" y="188" width="86.8" height="3" rx="1.5" fill="#7c3aed"/>
<text x="93" y="215.0" text-anchor="end" font-size="12" fill="#1e293b">RegExp</text>
<rect x="101" y="202" width="44.2" height="3" rx="1.5" fill="#2563eb"/>
<rect x="101" y="206" width="55.5" height="3" rx="1.5" fill="#059669"/>
<rect x="101" y="210" width="71.3" height="3" rx="1.5" fill="#d97706"/>
<rect x="101" y="214" width="35.3" height="3" rx="1.5" fill="#7c3aed"/>
<rect x="101" y="224" width="640" height="26" fill="#f8fafc"/>
<text x="93" y="241.0" text-anchor="end" font-size="12" fill="#1e293b">Splay</text>
<rect x="101" y="228" width="421.3" height="3" rx="1.5" fill="#2563eb"/>
<rect x="101" y="232" width="498.5" height="3" rx="1.5" fill="#059669"/>
<rect x="101" y="236" width="615.4" height="3" rx="1.5" fill="#d97706"/>
<rect x="101" y="240" width="191.5" height="3" rx="1.5" fill="#7c3aed"/>
<text x="93" y="267.0" text-anchor="end" font-size="12" fill="#1e293b">NavierStokes</text>
<rect x="101" y="254" width="184.6" height="3" rx="1.5" fill="#2563eb"/>
<rect x="101" y="258" width="211.7" height="3" rx="1.5" fill="#059669"/>
<rect x="101" y="262" width="298.9" height="3" rx="1.5" fill="#d97706"/>
<rect x="101" y="266" width="33.5" height="3" rx="1.5" fill="#7c3aed"/>
<rect x="101" y="276" width="640" height="26" fill="#f8fafc"/>
<text x="93" y="293.0" text-anchor="end" font-size="12" fill="#1e293b">Overall</text>
<rect x="101" y="280" width="146.6" height="3" rx="1.5" fill="#2563eb"/>
<rect x="101" y="284" width="169.7" height="3" rx="1.5" fill="#059669"/>
<rect x="101" y="288" width="216.0" height="3" rx="1.5" fill="#d97706"/>
<rect x="101" y="292" width="49.1" height="3" rx="1.5" fill="#7c3aed"/>
<line x1="101" y1="68" x2="101" y2="302" stroke="#cbd5e1"/>
<line x1="101" y1="302" x2="741" y2="302" stroke="#cbd5e1"/>
<line x1="101.0" y1="302" x2="101.0" y2="306" stroke="#94a3b8"/>
<text x="101.0" y="318" text-anchor="middle" font-size="10" fill="#64748b">0.00</text>
<line x1="261.0" y1="302" x2="261.0" y2="306" stroke="#94a3b8"/>
<text x="261.0" y="318" text-anchor="middle" font-size="10" fill="#64748b">1310</text>
<line x1="421.0" y1="302" x2="421.0" y2="306" stroke="#94a3b8"/>
<text x="421.0" y="318" text-anchor="middle" font-size="10" fill="#64748b">2620</text>
<line x1="581.0" y1="302" x2="581.0" y2="306" stroke="#94a3b8"/>
<text x="581.0" y="318" text-anchor="middle" font-size="10" fill="#64748b">3930</text>
<line x1="741.0" y1="302" x2="741.0" y2="306" stroke="#94a3b8"/>
<text x="741.0" y="318" text-anchor="middle" font-size="10" fill="#64748b">5240</text>
<text x="421.0" y="336" text-anchor="middle" font-size="11" fill="#64748b">SCORE，越高越快</text>
</svg>